<svg xmlns="http://www.w3.org/2000/svg" viewBox="0 0 400 300">
  <defs><linearGradient id="bgo" x1="0" y1="0" x2="0" y2="1"><stop offset="0" stop-color="#0d1117"/><stop offset="1" stop-color="#161b22"/></linearGradient><linearGradient id="glass" x1="0" y1="0" x2="0" y2="1"><stop offset="0" stop-color="#2a4a6a" opacity="0.4"/><stop offset="1" stop-color="#1a3a5a" opacity="0.3"/></linearGradient><linearGradient id="bldg" x1="0" y1="0" x2="0" y2="1"><stop offset="0" stop-color="#3a4a5a"/><stop offset="1" stop-color="#1a2a3a"/></linearGradient><filter id="sho"><feDropShadow dx="2" dy="2" stdDeviation="3" flood-opacity="0.5"/></filter></defs>
  <rect width="400" height="300" fill="url(#bgo)"/>
  <rect x="20" y="20" width="360" height="260" rx="8" fill="#1c1c30" stroke="#3a4a6a" stroke-width="2" filter="url(#sho)"/>
  <rect x="50" y="40" width="300" height="230" rx="6" fill="url(#bldg)" stroke="#5a6a7a" stroke-width="1.5"/>
  <rect x="60" y="50" width="130" height="210" rx="3" fill="#2a3a4a" stroke="#6a7a8a" stroke-width="1"/>
  <rect x="65" y="55" width="55" height="40" rx="2" fill="url(#glass)" stroke="#4a7a9a" stroke-width="0.5"/>
  <rect x="125" y="55" width="55" height="40" rx="2" fill="url(#glass)" stroke="#4a7a9a" stroke-width="0.5"/>
  <rect x="65" y="100" width="55" height="40" rx="2" fill="url(#glass)" stroke="#4a7a9a" stroke-width="0.5"/>
  <rect x="125" y="100" width="55" height="40" rx="2" fill="url(#glass)" stroke="#4a7a9a" stroke-width="0.5"/>
  <rect x="65" y="145" width="55" height="40" rx="2" fill="url(#glass)" stroke="#4a7a9a" stroke-width="0.5"/>
  <rect x="125" y="145" width="55" height="40" rx="2" fill="url(#glass)" stroke="#4a7a9a" stroke-width="0.5"/>
  <rect x="65" y="190" width="55" height="40" rx="2" fill="url(#glass)" stroke="#4a7a9a" stroke-width="0.5"/>
  <rect x="125" y="190" width="55" height="40" rx="2" fill="url(#glass)" stroke="#4a7a9a" stroke-width="0.5"/>
  <rect x="200" y="50" width="130" height="210" rx="3" fill="#2a3a4a" stroke="#6a7a8a" stroke-width="1"/>
  <rect x="205" y="55" width="55" height="40" rx="2" fill="url(#glass)" stroke="#4a7a9a" stroke-width="0.5"/>
  <rect x="265" y="55" width="55" height="40" rx="2" fill="url(#glass)" stroke="#4a7a9a" stroke-width="0.5"/>
  <rect x="205" y="100" width="55" height="40" rx="2" fill="url(#glass)" stroke="#4a7a9a" stroke-width="0.5"/>
  <rect x="265" y="100" width="55" height="40" rx="2" fill="url(#glass)" stroke="#4a7a9a" stroke-width="0.5"/>
  <rect x="205" y="145" width="55" height="40" rx="2" fill="url(#glass)" stroke="#4a7a9a" stroke-width="0.5"/>
  <rect x="265" y="145" width="55" height="40" rx="2" fill="url(#glass)" stroke="#4a7a9a" stroke-width="0.5"/>
  <rect x="205" y="190" width="55" height="40" rx="2" fill="url(#glass)" stroke="#4a7a9a" stroke-width="0.5"/>
  <rect x="265" y="190" width="55" height="40" rx="2" fill="url(#glass)" stroke="#4a7a9a" stroke-width="0.5"/>
  <rect x="60" y="235" width="180" height="4" rx="2" fill="#3a5a6a"/><rect x="250" y="235" width="80" height="4" rx="2" fill="#3a5a6a"/>
  <rect x="50" y="240" width="300" height="25" rx="2" fill="#1a2a3a" stroke="#3a5a6a" stroke-width="1"/>
  <rect x="55" y="245" width="290" height="16" rx="2" fill="#1e1e32" stroke="#3a4a5a" stroke-width="0.5"/>
  <text x="200" y="256" text-anchor="middle" fill="#ffcc00" font-family="monospace" font-size="8">SURIN SANAT FARZAN HQ</text>
  <text x="85" y="280" fill="#667788" font-family="monospace" font-size="7">TEHRAN · IRAN</text>
  <text x="315" y="280" text-anchor="end" fill="#667788" font-family="monospace" font-size="7">Est. 1385</text>
</svg>