<svg xmlns="http://www.w3.org/2000/svg" viewBox="0 0 400 300">
  <defs><linearGradient id="bgw" x1="0" y1="0" x2="0" y2="1"><stop offset="0" stop-color="#0d1117"/><stop offset="1" stop-color="#161b22"/></linearGradient><linearGradient id="wh" x1="0" y1="0" x2="0" y2="1"><stop offset="0" stop-color="#3a4a5a"/><stop offset="1" stop-color="#2a3a4a"/></linearGradient><linearGradient id="shelf" x1="0" y1="0" x2="0" y2="1"><stop offset="0" stop-color="#4a5a6a"/><stop offset="1" stop-color="#2a3a4a"/></linearGradient><linearGradient id="box" x1="0" y1="0" x2="0" y2="1"><stop offset="0" stop-color="#5a6a7a"/><stop offset="1" stop-color="#3a4a5a"/></linearGradient><filter id="shw"><feDropShadow dx="2" dy="2" stdDeviation="3" flood-opacity="0.5"/></filter></defs>
  <rect width="400" height="300" fill="url(#bgw)"/>
  <rect x="20" y="20" width="360" height="260" rx="8" fill="#1c1c30" stroke="#3a4a6a" stroke-width="2" filter="url(#shw)"/>
  <rect x="30" y="30" width="340" height="240" rx="5" fill="url(#wh)" stroke="#5a6a7a" stroke-width="1"/>
  <rect x="38" y="55" width="100" height="115" rx="3" fill="url(#shelf)" stroke="#6a7a8a" stroke-width="1"/>
  <rect x="43" y="60" width="90" height="30" rx="2" fill="url(#box)" stroke="#7a8a9a" stroke-width="0.5"/>
  <rect x="43" y="95" width="90" height="30" rx="2" fill="url(#box)" stroke="#7a8a9a" stroke-width="0.5"/>
  <rect x="43" y="130" width="90" height="30" rx="2" fill="url(#box)" stroke="#7a8a9a" stroke-width="0.5"/>
  <rect x="148" y="55" width="100" height="115" rx="3" fill="url(#shelf)" stroke="#6a7a8a" stroke-width="1"/>
  <rect x="153" y="60" width="90" height="30" rx="2" fill="url(#box)" stroke="#7a8a9a" stroke-width="0.5"/>
  <rect x="153" y="95" width="90" height="30" rx="2" fill="url(#box)" stroke="#7a8a9a" stroke-width="0.5"/>
  <rect x="153" y="130" width="90" height="30" rx="2" fill="url(#box)" stroke="#7a8a9a" stroke-width="0.5"/>
  <rect x="258" y="55" width="100" height="115" rx="3" fill="url(#shelf)" stroke="#6a7a8a" stroke-width="1"/>
  <rect x="263" y="60" width="90" height="30" rx="2" fill="url(#box)" stroke="#7a8a9a" stroke-width="0.5"/>
  <rect x="263" y="95" width="90" height="30" rx="2" fill="url(#box)" stroke="#7a8a9a" stroke-width="0.5"/>
  <rect x="263" y="130" width="90" height="30" rx="2" fill="url(#box)" stroke="#7a8a9a" stroke-width="0.5"/>
  <rect x="38" y="180" width="320" height="30" rx="3" fill="#1a2a3a" stroke="#3a5a6a" stroke-width="1"/>
  <text x="198" y="200" text-anchor="middle" fill="#88bbdd" font-family="monospace" font-size="8">INDUSTRIAL WAREHOUSE · 2000 m²</text>
  <rect x="38" y="215" width="100" height="45" rx="3" fill="#1a1a2e" stroke="#3a5a7a" stroke-width="1"/>
  <text x="88" y="235" text-anchor="middle" fill="#ffcc00" font-family="monospace" font-size="8">INVENTORY</text>
  <text x="88" y="252" text-anchor="middle" fill="#44ff88" font-family="monospace" font-size="11">12,450</text>
  <rect x="148" y="215" width="100" height="45" rx="3" fill="#1a1a2e" stroke="#3a5a7a" stroke-width="1"/>
  <text x="198" y="235" text-anchor="middle" fill="#ffcc00" font-family="monospace" font-size="8">FULFILLMENT</text>
  <text x="198" y="252" text-anchor="middle" fill="#4488ff" font-family="monospace" font-size="11">98%</text>
  <rect x="258" y="215" width="100" height="45" rx="3" fill="#1a1a2e" stroke="#3a5a7a" stroke-width="1"/>
  <text x="308" y="235" text-anchor="middle" fill="#ffcc00" font-family="monospace" font-size="8">BRANDS</text>
  <text x="308" y="252" text-anchor="middle" fill="#ffaa44" font-family="monospace" font-size="11">6+</text>
</svg>