<svg xmlns="http://www.w3.org/2000/svg" viewBox="0 0 600 400">
  <defs>
    <linearGradient id="bg2" x1="0" y1="0" x2="0" y2="1"><stop offset="0" stop-color="#0d1117"/><stop offset="1" stop-color="#161b22"/></linearGradient>
    <linearGradient id="hmi" x1="0" y1="0" x2="0" y2="1"><stop offset="0" stop-color="#1a1a2e"/><stop offset="1" stop-color="#12121e"/></linearGradient>
    <linearGradient id="screen2" x1="0" y1="0" x2="0" y2="1"><stop offset="0" stop-color="#0a2a1a"/><stop offset="1" stop-color="#051510"/></linearGradient>
    <linearGradient id="plcbody" x1="0" y1="0" x2="0" y2="1"><stop offset="0" stop-color="#2a3040"/><stop offset="1" stop-color="#1a2030"/></linearGradient>
    <linearGradient id="ledg" x1="0" y1="0" x2="1" y2="1"><stop offset="0" stop-color="#00ff88"/><stop offset="1" stop-color="#00aa44"/></linearGradient>
    <filter id="shadow2"><feDropShadow dx="3" dy="3" stdDeviation="4" flood-opacity="0.5"/></filter>
    <filter id="glow2"><feGaussianBlur stdDeviation="1.5" result="blur"/><feMerge><feMergeNode in="blur"/><feMergeNode in="SourceGraphic"/></feMerge></filter>
  </defs>
  <rect width="600" height="400" fill="url(#bg2)"/>
  <rect x="30" y="40" width="260" height="300" rx="10" fill="#1c1c30" stroke="#3a4a6a" stroke-width="2" filter="url(#shadow2)"/>
  <rect x="45" y="55" width="230" height="160" rx="6" fill="url(#hmi)" stroke="#4a5a7a" stroke-width="1"/>
  <rect x="55" y="65" width="210" height="120" rx="4" fill="url(#screen2)" stroke="#2a5a3a" stroke-width="1"/>
  <rect x="65" y="75" width="190" height="100" rx="2" fill="#061a12" stroke="#1a3a2a" stroke-width="1"/>
  <text x="160" y="95" text-anchor="middle" fill="#00ff88" font-family="monospace" font-size="10" filter="url(#glow2)">SURIN AUTOMATION</text>
  <text x="100" y="115" fill="#44ccff" font-family="monospace" font-size="8">TEMP: 25.4C</text>
  <text x="100" y="130" fill="#44ff88" font-family="monospace" font-size="8">PRESS: 4.2 bar</text>
  <text x="100" y="145" fill="#ffaa44" font-family="monospace" font-size="8">FLOW: 12.7 m3/h</text>
  <text x="100" y="160" fill="#ff6644" font-family="monospace" font-size="8">RPM: 1450</text>
  <rect x="100" y="168" width="120" height="4" rx="2" fill="#2a5a3a" stroke="#1a3a2a" stroke-width="0.5"/>
  <rect x="100" y="168" width="85" height="4" rx="2" fill="#44ff88" opacity="0.8"/>
  <rect x="55" y="190" width="210" height="20" rx="3" fill="#1a1a2e" stroke="#3a4a5a" stroke-width="0.5"/>
  <g fill="#3a4a5a" stroke-width="0.5" stroke="#4a5a6a">
    <rect x="62" y="192" width="32" height="16" rx="2"/><rect x="98" y="192" width="32" height="16" rx="2"/>
    <rect x="134" y="192" width="32" height="16" rx="2"/><rect x="170" y="192" width="32" height="16" rx="2"/>
    <rect x="206" y="192" width="32" height="16" rx="2"/>
  </g>
  <g transform="translate(60, 230)">
    <rect x="0" y="0" width="200" height="35" rx="4" fill="#1e1e32" stroke="#4a6a8a" stroke-width="1"/>
    <circle cx="25" cy="17" r="5" fill="#ff4444"/><circle cx="50" cy="17" r="5" fill="url(#ledg)"/>
    <circle cx="75" cy="17" r="5" fill="#ffaa00"/><circle cx="100" cy="17" r="5" fill="#4488ff"/>
    <rect x="125" y="7" width="60" height="20" rx="3" fill="#1a1a2a" stroke="#556677" stroke-width="1"/>
    <text x="155" y="21" text-anchor="middle" fill="#8899aa" font-family="monospace" font-size="8">RUN</text>
  </g>
  <g transform="translate(60, 275)">
    <rect x="0" y="0" width="200" height="50" rx="4" fill="#222238" stroke="#4a6a8a" stroke-width="1"/>
    <rect x="10" y="8" width="55" height="36" rx="2" fill="#1a1a2e" stroke="#6688aa" stroke-width="1"/>
    <text x="37" y="30" text-anchor="middle" fill="#88bbdd" font-family="monospace" font-size="9">ESC</text>
    <rect x="72" y="8" width="55" height="36" rx="2" fill="#1a1a2e" stroke="#6688aa" stroke-width="1"/>
    <text x="99" y="30" text-anchor="middle" fill="#88bbdd" font-family="monospace" font-size="9">ENTER</text>
    <rect x="134" y="8" width="55" height="36" rx="2" fill="#1a1a2e" stroke="#6688aa" stroke-width="1"/>
    <text x="161" y="30" text-anchor="middle" fill="#88bbdd" font-family="monospace" font-size="9">MENU</text>
  </g>
  <rect x="310" y="40" width="260" height="300" rx="10" fill="#1c1c30" stroke="#3a4a6a" stroke-width="2" filter="url(#shadow2)"/>
  <text x="440" y="65" text-anchor="middle" fill="url(#ledg)" font-family="monospace" font-size="11" font-weight="bold">SIMATIC S7-1200</text>
  <rect x="325" y="75" width="230" height="90" rx="6" fill="url(#plcbody)" stroke="#4a6a8a" stroke-width="1"/>
  <rect x="335" y="82" width="210" height="75" rx="3" fill="#1a1a2e" stroke="#3a5a7a" stroke-width="1"/>
  <g fill="#0d1117" stroke="#556677" stroke-width="0.5">
    <rect x="342" y="88" width="18" height="20" rx="1"/><rect x="363" y="88" width="18" height="20" rx="1"/>
    <rect x="384" y="88" width="18" height="20" rx="1"/><rect x="405" y="88" width="18" height="20" rx="1"/>
    <rect x="342" y="112" width="18" height="20" rx="1"/><rect x="363" y="112" width="18" height="20" rx="1"/>
    <rect x="384" y="112" width="18" height="20" rx="1"/><rect x="405" y="112" width="18" height="20" rx="1"/>
    <rect x="342" y="136" width="18" height="14" rx="1"/><rect x="363" y="136" width="18" height="14" rx="1"/>
    <rect x="384" y="136" width="18" height="14" rx="1"/><rect x="405" y="136" width="18" height="14" rx="1"/>
  </g>
  <text x="445" y="103" fill="#8899aa" font-family="monospace" font-size="7">DI x8</text>
  <text x="445" y="127" fill="#8899aa" font-family="monospace" font-size="7">DO x8</text>
  <text x="445" y="148" fill="#8899aa" font-family="monospace" font-size="7">AI x4</text>
  <rect x="325" y="172" width="230" height="45" rx="4" fill="url(#plcbody)" stroke="#4a6a8a" stroke-width="1"/>
  <rect x="335" y="178" width="210" height="32" rx="2" fill="#1a1a2e" stroke="#3a5a7a" stroke-width="1"/>
  <g fill="#0d1117" stroke="#667788" stroke-width="0.5">
    <rect x="342" y="183" width="14" height="22" rx="1"/><rect x="360" y="183" width="14" height="22" rx="1"/>
    <rect x="378" y="183" width="14" height="22" rx="1"/><rect x="396" y="183" width="14" height="22" rx="1"/>
    <rect x="414" y="183" width="14" height="22" rx="1"/>
  </g>
  <text x="460" y="200" fill="#8899aa" font-family="monospace" font-size="7">AI 2/AO 2</text>
  <rect x="325" y="223" width="230" height="40" rx="4" fill="url(#plcbody)" stroke="#4a6a8a" stroke-width="1"/>
  <rect x="335" y="228" width="210" height="30" rx="2" fill="#1a1a2e" stroke="#3a5a7a" stroke-width="1"/>
  <rect x="342" y="233" width="130" height="20" rx="2" fill="#0d1117" stroke="#6688aa" stroke-width="0.5"/>
  <text x="360" y="246" fill="#88bbdd" font-family="monospace" font-size="8">PROFINET</text>
  <circle cx="520" cy="243" r="6" fill="#0d1117" stroke="#ffaa00" stroke-width="1.5"/>
  <text x="520" y="247" text-anchor="middle" fill="#ffaa00" font-family="monospace" font-size="7">P</text>
  <rect x="325" y="268" width="230" height="60" rx="4" fill="url(#plcbody)" stroke="#4a6a8a" stroke-width="1"/>
  <text x="440" y="288" text-anchor="middle" fill="#8899aa" font-family="monospace" font-size="8" font-weight="bold">24V DC POWER SUPPLY</text>
  <rect x="365" y="295" width="150" height="25" rx="3" fill="#1a1a2e" stroke="#556677" stroke-width="1"/>
  <text x="440" y="312" text-anchor="middle" fill="#44ff88" font-family="monospace" font-size="8">+24V</text>
  <rect x="10" y="380" width="580" height="10" rx="3" fill="#0a0a15" stroke="#1a2a3a" stroke-width="0.5"/>
</svg>