<svg xmlns="http://www.w3.org/2000/svg" viewBox="0 0 600 400">
  <defs>
    <linearGradient id="bga" x1="0" y1="0" x2="0" y2="1"><stop offset="0" stop-color="#0d1117"/><stop offset="1" stop-color="#161b22"/></linearGradient>
    <linearGradient id="panela" x1="0" y1="0" x2="0" y2="1"><stop offset="0" stop-color="#1c1c30"/><stop offset="1" stop-color="#12121e"/></linearGradient>
    <linearGradient id="gface" x1="0" y1="0" x2="0" y2="1"><stop offset="0" stop-color="#e8e8e8"/><stop offset="1" stop-color="#c0c0c0"/></linearGradient>
    <filter id="sha"><feDropShadow dx="2" dy="2" stdDeviation="4" flood-opacity="0.5"/></filter>
    <filter id="glo"><feGaussianBlur stdDeviation="1.5" result="blur"/><feMerge><feMergeNode in="blur"/><feMergeNode in="SourceGraphic"/></feMerge></filter>
  </defs>
  <rect width="600" height="400" fill="url(#bga)"/>
  <rect x="20" y="15" width="560" height="370" rx="12" fill="#1c1c30" stroke="#3a4a6a" stroke-width="2" filter="url(#sha)"/>
  <rect x="30" y="25" width="540" height="30" rx="5" fill="#0a0a15" stroke="#3a4a5a" stroke-width="0.5"/>
  <text x="300" y="46" text-anchor="middle" fill="#ffcc00" font-family="monospace" font-size="13" font-weight="bold">INSTRUMENTATION PANEL</text>
  <rect x="35" y="65" width="170" height="200" rx="8" fill="url(#panela)" stroke="#4a6a8a" stroke-width="1.5" filter="url(#sha)"/>
  <circle cx="120" cy="135" r="55" fill="url(#gface)" stroke="#889999" stroke-width="1.5"/>
  <circle cx="120" cy="135" r="49" fill="#e0e0e0"/>
  <path d="M75 145 A50 50 0 0 1 120 90" fill="none" stroke="#ff4444" stroke-width="6" opacity="0.4"/>
  <path d="M120 90 A50 50 0 0 1 165 145" fill="none" stroke="#44bb44" stroke-width="6" opacity="0.4"/>
  <line x1="120" y1="135" x2="155" y2="105" stroke="#cc0000" stroke-width="2.5"/>
  <line x1="120" y1="135" x2="145" y2="130" stroke="#333" stroke-width="1.5"/>
  <circle cx="120" cy="135" r="5" fill="#333"/>
  <text x="120" y="180" text-anchor="middle" fill="#333" font-family="monospace" font-size="9" font-weight="bold">BAR</text>
  <text x="120" y="198" text-anchor="middle" fill="#8899aa" font-family="monospace" font-size="8">PRESSURE</text>
  <rect x="50" y="210" width="140" height="40" rx="4" fill="#12121e" stroke="#3a5a7a" stroke-width="1"/>
  <text x="120" y="236" text-anchor="middle" fill="#ffaa44" font-family="monospace" font-size="16" filter="url(#glo)">4.2</text>
  <rect x="215" y="65" width="170" height="200" rx="8" fill="url(#panela)" stroke="#4a6a8a" stroke-width="1.5" filter="url(#sha)"/>
  <circle cx="300" cy="135" r="55" fill="url(#gface)" stroke="#889999" stroke-width="1.5"/>
  <circle cx="300" cy="135" r="49" fill="#e0e0e0"/>
  <path d="M255 145 A50 50 0 0 1 300 90" fill="none" stroke="#ff6644" stroke-width="6" opacity="0.4"/>
  <path d="M300 90 A50 50 0 0 1 345 145" fill="none" stroke="#44bb44" stroke-width="6" opacity="0.4"/>
  <line x1="300" y1="135" x2="270" y2="105" stroke="#cc0000" stroke-width="2.5"/>
  <line x1="300" y1="135" x2="315" y2="115" stroke="#333" stroke-width="1.5"/>
  <circle cx="300" cy="135" r="5" fill="#333"/>
  <text x="300" y="180" text-anchor="middle" fill="#333" font-family="monospace" font-size="9" font-weight="bold">°C</text>
  <text x="300" y="198" text-anchor="middle" fill="#8899aa" font-family="monospace" font-size="8">TEMP</text>
  <rect x="230" y="210" width="140" height="40" rx="4" fill="#12121e" stroke="#3a5a7a" stroke-width="1"/>
  <text x="300" y="236" text-anchor="middle" fill="#ff6644" font-family="monospace" font-size="16" filter="url(#glo)">185.6</text>
  <rect x="395" y="65" width="170" height="200" rx="8" fill="url(#panela)" stroke="#4a6a8a" stroke-width="1.5" filter="url(#sha)"/>
  <rect x="410" y="85" width="140" height="55" rx="4" fill="#12121e" stroke="#3a5a7a" stroke-width="1"/>
  <text x="480" y="110" text-anchor="middle" fill="#44ff88" font-family="monospace" font-size="13" filter="url(#glo)">20.9%</text>
  <text x="480" y="128" text-anchor="middle" fill="#667788" font-family="monospace" font-size="8">O₂</text>
  <rect x="410" y="148" width="140" height="55" rx="4" fill="#12121e" stroke="#3a5a7a" stroke-width="1"/>
  <text x="480" y="173" text-anchor="middle" fill="#ffaa44" font-family="monospace" font-size="13">0.04%</text>
  <text x="480" y="191" text-anchor="middle" fill="#667788" font-family="monospace" font-size="8">CO₂</text>
  <rect x="410" y="211" width="140" height="40" rx="4" fill="#12121e" stroke="#3a5a7a" stroke-width="1"/>
  <text x="480" y="237" text-anchor="middle" fill="#ffaa00" font-family="monospace" font-size="11">RUNNING</text>
  <rect x="35" y="280" width="530" height="45" rx="6" fill="#1a1a2e" stroke="#3a5a7a" stroke-width="1"/>
  <rect x="42" y="287" width="118" height="30" rx="3" fill="#0d1117" stroke="#556677" stroke-width="0.5"/>
  <text x="101" y="307" text-anchor="middle" fill="#8899aa" font-family="monospace" font-size="9">TRANSMITTER</text>
  <rect x="168" y="287" width="118" height="30" rx="3" fill="#0d1117" stroke="#556677" stroke-width="0.5"/>
  <text x="227" y="307" text-anchor="middle" fill="#8899aa" font-family="monospace" font-size="9">CALIBRATOR</text>
  <rect x="294" y="287" width="118" height="30" rx="3" fill="#0d1117" stroke="#556677" stroke-width="0.5"/>
  <text x="353" y="307" text-anchor="middle" fill="#8899aa" font-family="monospace" font-size="9">SENSOR</text>
  <rect x="420" y="287" width="118" height="30" rx="3" fill="#0d1117" stroke="#556677" stroke-width="0.5"/>
  <text x="479" y="307" text-anchor="middle" fill="#8899aa" font-family="monospace" font-size="9">DATALOGGER</text>
  <rect x="35" y="335" width="530" height="35" rx="6" fill="#0a0a15" stroke="#1a2a3a" stroke-width="1"/>
  <text x="300" y="358" text-anchor="middle" fill="#667788" font-family="monospace" font-size="9">INSTRUMENTATION & PROCESS CONTROL</text>
</svg>