<svg xmlns="http://www.w3.org/2000/svg" viewBox="0 0 600 400">
  <defs>
    <linearGradient id="bg5" x1="0" y1="0" x2="0" y2="1"><stop offset="0" stop-color="#0d1117"/><stop offset="1" stop-color="#161b22"/></linearGradient>
    <linearGradient id="cablebody" x1="0" y1="0" x2="0" y2="1"><stop offset="0" stop-color="#2a3a4a"/><stop offset="1" stop-color="#1a2a3a"/></linearGradient>
    <linearGradient id="cableblk" x1="0" y1="0" x2="0" y2="1"><stop offset="0" stop-color="#333333"/><stop offset="1" stop-color="#1a1a1a"/></linearGradient>
    <linearGradient id="reel" x1="0" y1="0" x2="1" y2="0"><stop offset="0" stop-color="#cc8844"/><stop offset="1" stop-color="#aa6622"/></linearGradient>
    <linearGradient id="copperwire" x1="0" y1="0" x2="1" y2="0"><stop offset="0" stop-color="#dd9955"/><stop offset="1" stop-color="#bb7733"/></linearGradient>
    <filter id="shadow5"><feDropShadow dx="3" dy="3" stdDeviation="5" flood-opacity="0.5"/></filter>
    <filter id="glow5"><feGaussianBlur stdDeviation="1.5" result="blur"/><feMerge><feMergeNode in="blur"/><feMergeNode in="SourceGraphic"/></feMerge></filter>
  </defs>
  <rect width="600" height="400" fill="url(#bg5)"/>
  <rect x="20" y="20" width="560" height="360" rx="12" fill="#1c1c30" stroke="#3a4a6a" stroke-width="2" filter="url(#shadow5)"/>
  <rect x="35" y="35" width="250" height="330" rx="8" fill="#1e1e32" stroke="#4a6a8a" stroke-width="1"/>
  <rect x="45" y="50" width="230" height="20" rx="3" fill="#0a0a15" stroke="#3a4a5a" stroke-width="0.5"/>
  <text x="160" y="63" text-anchor="middle" fill="#ffcc00" font-family="monospace" font-size="9">CABLE REEL</text>
  <rect x="55" y="80" width="210" height="160" rx="6" fill="#222238" stroke="#556677" stroke-width="1"/>
  <circle cx="160" cy="160" r="65" fill="#2a2a3e" stroke="#6a8aaa" stroke-width="2"/>
  <circle cx="160" cy="160" r="55" fill="#1a1a2e" stroke="#5a7a9a" stroke-width="1"/>
  <circle cx="160" cy="160" r="15" fill="#3a3a4e" stroke="#7a8a9a" stroke-width="1"/>
  <rect x="145" y="95" width="30" height="130" rx="3" fill="url(#copperwire)" opacity="0.6"/>
  <g opacity="0.4">
    <line x1="160" y1="105" x2="160" y2="95" stroke="#ffaa00" stroke-width="2"/>
    <line x1="160" y1="105" x2="180" y2="110" stroke="#ffaa00" stroke-width="2"/>
    <line x1="160" y1="105" x2="140" y2="110" stroke="#ffaa00" stroke-width="2"/>
  </g>
  <rect x="55" y="250" width="210" height="50" rx="4" fill="#1a1a2e" stroke="#4a6a8a" stroke-width="1"/>
  <text x="95" y="275" fill="#88bbdd" font-family="monospace" font-size="8">LENGTH: 100m</text>
  <text x="95" y="292" fill="#88bbdd" font-family="monospace" font-size="8">DIAM: 5mm</text>
  <text x="200" y="275" fill="#ffaa44" font-family="monospace" font-size="8">CU/XLPE/PVC</text>
  <text x="200" y="292" fill="#ffaa44" font-family="monospace" font-size="8">0.6/1kV</text>
  <rect x="55" y="310" width="210" height="40" rx="4" fill="#12121e" stroke="#3a5a7a" stroke-width="1"/>
  <rect x="62" y="316" width="60" height="28" rx="2" fill="#0a0a15" stroke="#556677" stroke-width="0.5"/>
  <text x="92" y="334" text-anchor="middle" fill="#44cc44" font-family="monospace" font-size="8">LV</text>
  <rect x="128" y="316" width="60" height="28" rx="2" fill="#0a0a15" stroke="#556677" stroke-width="0.5"/>
  <text x="158" y="334" text-anchor="middle" fill="#ffaa00" font-family="monospace" font-size="8">MV</text>
  <rect x="194" y="316" width="60" height="28" rx="2" fill="#0a0a15" stroke="#556677" stroke-width="0.5"/>
  <text x="224" y="334" text-anchor="middle" fill="#ff4444" font-family="monospace" font-size="8">HV</text>
  <rect x="300" y="35" width="270" height="330" rx="8" fill="#1e1e32" stroke="#4a6a8a" stroke-width="1"/>
  <rect x="310" y="50" width="250" height="20" rx="3" fill="#0a0a15" stroke="#3a4a5a" stroke-width="0.5"/>
  <text x="435" y="63" text-anchor="middle" fill="#ffcc00" font-family="monospace" font-size="9">CABLE TYPES</text>
  <g transform="translate(310, 80)">
    <rect x="0" y="0" width="250" height="50" rx="4" fill="#1a1a2e" stroke="#4a6a8a" stroke-width="1"/>
    <rect x="10" y="8" width="60" height="34" rx="4" fill="url(#cableblk)" stroke="#556677" stroke-width="0.5"/>
    <line x1="20" y1="15" x2="60" y2="35" stroke="#dd9955" stroke-width="3"/>
    <line x1="20" y1="35" x2="60" y2="15" stroke="#dd9955" stroke-width="3"/>
    <line x1="35" y1="12" x2="35" y2="38" stroke="#dd9955" stroke-width="1"/>
    <text x="110" y="22" fill="#88bbdd" font-family="monospace" font-size="9">POWER CABLE</text>
    <text x="110" y="38" fill="#667788" font-family="monospace" font-size="7">YJV 3×95+1×50 mm²</text>
  </g>
  <g transform="translate(310, 140)">
    <rect x="0" y="0" width="250" height="50" rx="4" fill="#1a1a2e" stroke="#4a6a8a" stroke-width="1"/>
    <rect x="10" y="8" width="60" height="34" rx="4" fill="url(#cableblk)" stroke="#556677" stroke-width="0.5"/>
    <circle cx="40" cy="25" r="8" fill="#dd9955"/><circle cx="40" cy="25" r="5" fill="#4488ff"/>
    <text x="110" y="22" fill="#88bbdd" font-family="monospace" font-size="9">INSTRUMENTATION</text>
    <text x="110" y="38" fill="#667788" font-family="monospace" font-size="7">LiYCY 4×0.5 mm²</text>
  </g>
  <g transform="translate(310, 200)">
    <rect x="0" y="0" width="250" height="50" rx="4" fill="#1a1a2e" stroke="#4a6a8a" stroke-width="1"/>
    <rect x="10" y="8" width="60" height="34" rx="4" fill="url(#cableblk)" stroke="#556677" stroke-width="0.5"/>
    <rect x="15" y="12" width="50" height="26" rx="5" fill="#4488ff" opacity="0.3"/>
    <text x="40" y="30" text-anchor="middle" fill="#88ccff" font-family="monospace" font-size="8">RJ45</text>
    <text x="110" y="22" fill="#88bbdd" font-family="monospace" font-size="9">NETWORK</text>
    <text x="110" y="38" fill="#667788" font-family="monospace" font-size="7">Cat6 SF/UTP 4×2×0.5</text>
  </g>
  <g transform="translate(310, 260)">
    <rect x="0" y="0" width="250" height="50" rx="4" fill="#1a1a2e" stroke="#4a6a8a" stroke-width="1"/>
    <rect x="10" y="8" width="60" height="34" rx="4" fill="url(#cableblk)" stroke="#556677" stroke-width="0.5"/>
    <circle cx="40" cy="25" r="6" fill="#dd9955" opacity="0.7"/>
    <line x1="35" y1="20" x2="45" y2="30" stroke="#ffaa00" stroke-width="2"/>
    <text x="110" y="22" fill="#88bbdd" font-family="monospace" font-size="9">FIBER OPTIC</text>
    <text x="110" y="38" fill="#667788" font-family="monospace" font-size="7">SM 9/125 μm</text>
  </g>
  <g transform="translate(310, 320)">
    <rect x="0" y="0" width="250" height="40" rx="4" fill="#12121e" stroke="#3a5a7a" stroke-width="1"/>
    <text x="125" y="18" text-anchor="middle" fill="#ffaa00" font-family="monospace" font-size="8">IEC 60502 · BS 5467 · ISIRI 356</text>
    <text x="125" y="33" text-anchor="middle" fill="#667788" font-family="monospace" font-size="7">CERTIFIED FOR INDUSTRIAL USE</text>
  </g>
  <rect x="10" y="390" width="580" height="5" rx="2" fill="#0a0a15" stroke="#1a2a3a" stroke-width="0.5"/>
</svg>