<svg xmlns="http://www.w3.org/2000/svg" viewBox="0 0 600 400">
  <defs>
    <linearGradient id="bg6" x1="0" y1="0" x2="0" y2="1"><stop offset="0" stop-color="#0d1117"/><stop offset="1" stop-color="#161b22"/></linearGradient>
    <linearGradient id="cab" x1="0" y1="0" x2="0" y2="1"><stop offset="0" stop-color="#2a3a4a"/><stop offset="1" stop-color="#1a2a3a"/></linearGradient>
    <linearGradient id="cab2" x1="0" y1="0" x2="0" y2="1"><stop offset="0" stop-color="#3a4a5a"/><stop offset="1" stop-color="#2a3a4a"/></linearGradient>
    <linearGradient id="door" x1="0" y1="0" x2="0" y2="1"><stop offset="0" stop-color="#4a5a6a"/><stop offset="1" stop-color="#2a3a4a"/></linearGradient>
    <linearGradient id="handle" x1="0" y1="0" x2="1" y2="0"><stop offset="0" stop-color="#8899aa"/><stop offset="1" stop-color="#667788"/></linearGradient>
    <linearGradient id="ledg6" x1="0" y1="0" x2="1" y2="1"><stop offset="0" stop-color="#00ff88"/><stop offset="1" stop-color="#00aa44"/></linearGradient>
    <filter id="shadow6"><feDropShadow dx="3" dy="3" stdDeviation="5" flood-opacity="0.6"/></filter>
    <filter id="inner"><feDropShadow dx="1" dy="1" stdDeviation="2" flood-opacity="0.3"/></filter>
    <pattern id="vent" width="6" height="6" patternUnits="userSpaceOnUse">
      <rect width="6" height="6" fill="none"/><line x1="0" y1="3" x2="6" y2="3" stroke="#1a1a2e" stroke-width="1"/>
    </pattern>
  </defs>
  <rect width="600" height="400" fill="url(#bg6)"/>
  <rect x="20" y="20" width="560" height="360" rx="12" fill="#1c1c30" stroke="#3a4a6a" stroke-width="2" filter="url(#shadow6)"/>
  <rect x="35" y="35" width="170" height="330" rx="6" fill="url(#cab)" stroke="#5a6a7a" stroke-width="2"/>
  <rect x="42" y="42" width="156" height="316" rx="4" fill="url(#cab2)" stroke="#6a7a8a" stroke-width="1"/>
  <rect x="50" y="50" width="140" height="100" rx="4" fill="url(#door)" stroke="#7a8a9a" stroke-width="1" filter="url(#inner)"/>
  <rect x="55" y="55" width="130" height="90" rx="2" fill="#1e1e32" stroke="#5a6a7a" stroke-width="1"/>
  <rect x="62" y="62" width="116" height="76" rx="2" fill="#12121e" stroke="#4a5a6a" stroke-width="1"/>
  <text x="120" y="85" text-anchor="middle" fill="#44ff88" font-family="monospace" font-size="9" filter="url(#shadow6)">MCC-01</text>
  <text x="120" y="102" text-anchor="middle" fill="#8899aa" font-family="monospace" font-size="7">FEEDER</text>
  <rect x="90" y="110" width="60" height="20" rx="3" fill="#1a1a2e" stroke="#556677" stroke-width="0.5"/>
  <text x="120" y="124" text-anchor="middle" fill="#ffaa00" font-family="monospace" font-size="8">ON</text>
  <rect x="55" y="158" width="140" height="100" rx="4" fill="url(#door)" stroke="#7a8a9a" stroke-width="1" filter="url(#inner)"/>
  <rect x="60" y="163" width="130" height="90" rx="2" fill="#1e1e32" stroke="#5a6a7a" stroke-width="1"/>
  <text x="125" y="183" text-anchor="middle" fill="#88bbdd" font-family="monospace" font-size="10">VFD-01</text>
  <rect x="62" y="192" width="126" height="54" rx="2" fill="#12121e" stroke="#4a5a6a" stroke-width="1"/>
  <text x="125" y="215" text-anchor="middle" fill="#44ff88" font-family="monospace" font-size="12">45.0</text>
  <text x="125" y="233" text-anchor="middle" fill="#667788" font-family="monospace" font-size="7">Hz</text>
  <rect x="55" y="266" width="140" height="92" rx="4" fill="url(#door)" stroke="#7a8a9a" stroke-width="1" filter="url(#inner)"/>
  <rect x="60" y="271" width="130" height="82" rx="2" fill="#1e1e32" stroke="#5a6a7a" stroke-width="1"/>
  <rect x="62" y="278" width="126" height="68" rx="2" fill="url(#vent)" stroke="#4a5a6a" stroke-width="1"/>
  <rect x="220" y="35" width="170" height="330" rx="6" fill="url(#cab)" stroke="#5a6a7a" stroke-width="2"/>
  <rect x="227" y="42" width="156" height="316" rx="4" fill="url(#cab2)" stroke="#6a7a8a" stroke-width="1"/>
  <rect x="235" y="50" width="140" height="210" rx="4" fill="url(#door)" stroke="#7a8a9a" stroke-width="1" filter="url(#inner)"/>
  <rect x="240" y="55" width="130" height="200" rx="2" fill="#1e1e32" stroke="#5a6a7a" stroke-width="1"/>
  <text x="305" y="78" text-anchor="middle" fill="#88bbdd" font-family="monospace" font-size="10">PLC PANEL</text>
  <rect x="247" y="88" width="116" height="100" rx="2" fill="#12121e" stroke="#4a5a6a" stroke-width="1"/>
  <g fill="#1a1a2e" stroke="#556677" stroke-width="0.5">
    <rect x="254" y="95" width="12" height="14" rx="1"/><rect x="270" y="95" width="12" height="14" rx="1"/>
    <rect x="286" y="95" width="12" height="14" rx="1"/><rect x="302" y="95" width="12" height="14" rx="1"/>
    <rect x="254" y="113" width="12" height="14" rx="1"/><rect x="270" y="113" width="12" height="14" rx="1"/>
    <rect x="286" y="113" width="12" height="14" rx="1"/><rect x="302" y="113" width="12" height="14" rx="1"/>
    <rect x="254" y="131" width="12" height="14" rx="1"/><rect x="270" y="131" width="12" height="14" rx="1"/>
    <rect x="286" y="131" width="12" height="14" rx="1"/><rect x="302" y="131" width="12" height="14" rx="1"/>
    <rect x="254" y="149" width="12" height="14" rx="1"/><rect x="270" y="149" width="12" height="14" rx="1"/>
    <rect x="286" y="149" width="12" height="14" rx="1"/><rect x="302" y="149" width="12" height="14" rx="1"/>
  </g>
  <text x="330" y="105" fill="#667788" font-family="monospace" font-size="6">DI</text>
  <text x="330" y="123" fill="#667788" font-family="monospace" font-size="6">DO</text>
  <text x="330" y="141" fill="#667788" font-family="monospace" font-size="6">AI</text>
  <text x="330" y="159" fill="#667788" font-family="monospace" font-size="6">AO</text>
  <rect x="247" y="196" width="116" height="50" rx="2" fill="#12121e" stroke="#4a5a6a" stroke-width="1"/>
  <text x="305" y="216" text-anchor="middle" fill="#44ff88" font-family="monospace" font-size="8">PROFINET</text>
  <text x="305" y="232" text-anchor="middle" fill="#88bbdd" font-family="monospace" font-size="7">192.168.1.10</text>
  <rect x="235" y="268" width="140" height="90" rx="4" fill="url(#door)" stroke="#7a8a9a" stroke-width="1" filter="url(#inner)"/>
  <rect x="240" y="273" width="130" height="80" rx="2" fill="#1e1e32" stroke="#5a6a7a" stroke-width="1"/>
  <text x="305" y="295" text-anchor="middle" fill="#88bbdd" font-family="monospace" font-size="9">POWER DIST.</text>
  <rect x="247" y="303" width="116" height="42" rx="2" fill="url(#vent)" stroke="#4a5a6a" stroke-width="1"/>
  <rect x="405" y="35" width="170" height="255" rx="6" fill="url(#cab)" stroke="#5a6a7a" stroke-width="2"/>
  <rect x="412" y="42" width="156" height="240" rx="4" fill="url(#cab2)" stroke="#6a7a8a" stroke-width="1"/>
  <rect x="420" y="50" width="140" height="225" rx="4" fill="url(#door)" stroke="#7a8a9a" stroke-width="1" filter="url(#inner)"/>
  <rect x="425" y="55" width="130" height="215" rx="2" fill="#1e1e32" stroke="#5a6a7a" stroke-width="1"/>
  <text x="490" y="78" text-anchor="middle" fill="#88bbdd" font-family="monospace" font-size="10">METERING</text>
  <rect x="432" y="88" width="116" height="75" rx="2" fill="#12121e" stroke="#4a5a6a" stroke-width="1"/>
  <text x="490" y="110" text-anchor="middle" fill="#44ff88" font-family="monospace" font-size="13">11.4</text>
  <text x="490" y="128" text-anchor="middle" fill="#667788" font-family="monospace" font-size="7">kV</text>
  <text x="490" y="148" text-anchor="middle" fill="#ffaa44" font-family="monospace" font-size="13">450</text>
  <text x="490" y="158" text-anchor="middle" fill="#667788" font-family="monospace" font-size="7">A</text>
  <rect x="432" y="171" width="116" height="50" rx="2" fill="#12121e" stroke="#4a5a6a" stroke-width="1"/>
  <text x="490" y="193" text-anchor="middle" fill="#ffaa00" font-family="monospace" font-size="9">POWER: 8.5 MW</text>
  <text x="490" y="210" text-anchor="middle" fill="#88bbdd" font-family="monospace" font-size="7">PF: 0.92</text>
  <rect x="432" y="228" width="116" height="35" rx="2" fill="#12121e" stroke="#4a5a6a" stroke-width="1"/>
  <text x="490" y="251" text-anchor="middle" fill="#ff6644" font-family="monospace" font-size="9">ENERGY: 45.2 GWh</text>
  <rect x="405" y="300" width="170" height="65" rx="6" fill="#1e1e32" stroke="#4a6a8a" stroke-width="1"/>
  <text x="490" y="322" text-anchor="middle" fill="#8899aa" font-family="monospace" font-size="8">SYSTEM STATUS</text>
  <rect x="420" y="330" width="140" height="25" rx="3" fill="#12121e" stroke="#4a5a6a" stroke-width="1"/>
  <text x="490" y="347" text-anchor="middle" fill="#44ff88" font-family="monospace" font-size="9">NORMAL</text>
  <rect x="35" y="375" width="530" height="8" rx="2" fill="#0a0a15" stroke="#1a2a3a" stroke-width="0.5"/>
  <text x="300" y="383" text-anchor="middle" fill="#667788" font-family="monospace" font-size="7">SURIN SANAT FARZAN - INDUSTRIAL SWITCHBOARD SYSTEMS</text>
</svg>