<svg xmlns="http://www.w3.org/2000/svg" viewBox="0 0 400 300">
  <defs><linearGradient id="bgt" x1="0" y1="0" x2="0" y2="1"><stop offset="0" stop-color="#0d1117"/><stop offset="1" stop-color="#161b22"/></linearGradient><linearGradient id="fig" x1="0" y1="0" x2="0" y2="1"><stop offset="0" stop-color="#3a4a5a"/><stop offset="1" stop-color="#2a3a4a"/></linearGradient><linearGradient id="suit" x1="0" y1="0" x2="0" y2="1"><stop offset="0" stop-color="#2a3a4a"/><stop offset="1" stop-color="#1a2a3a"/></linearGradient><linearGradient id="skin" x1="0" y1="0" x2="0" y2="1"><stop offset="0" stop-color="#ccaa88"/><stop offset="1" stop-color="#aa8866"/></linearGradient><filter id="sht"><feDropShadow dx="2" dy="2" stdDeviation="3" flood-opacity="0.5"/></filter></defs>
  <rect width="400" height="300" fill="url(#bgt)"/>
  <rect x="20" y="20" width="360" height="260" rx="8" fill="#1c1c30" stroke="#3a4a6a" stroke-width="2" filter="url(#sht)"/>
  <rect x="30" y="30" width="340" height="240" rx="5" fill="#222238" stroke="#4a6a8a" stroke-width="1"/>
  <g transform="translate(40, 30)">
    <rect x="0" y="0" width="100" height="180" rx="4" fill="url(#suit)" stroke="#5a6a7a" stroke-width="1"/>
    <circle cx="50" cy="30" r="22" fill="url(#skin)" stroke="#6a7a8a" stroke-width="0.5"/>
    <circle cx="50" cy="30" r="18" fill="url(#skin)"/>
    <rect x="25" y="18" width="10" height="5" rx="2" fill="#3a2a1a"/><rect x="65" y="18" width="10" height="5" rx="2" fill="#3a2a1a"/>
    <line x1="35" y1="30" x2="65" y2="30" stroke="#6a4a3a" stroke-width="1"/>
    <rect x="12" y="30" width="76" height="3" rx="1" fill="#667788"/>
    <rect x="25" y="60" width="50" height="60" rx="3" fill="#1a2a3a" stroke="#3a5a6a" stroke-width="0.5"/>
    <rect x="30" y="65" width="40" height="50" rx="2" fill="#223344"/>
    <rect x="20" y="130" width="60" height="25" rx="3" fill="#1a2a3a" stroke="#3a5a6a" stroke-width="0.5"/>
    <text x="50" y="146" text-anchor="middle" fill="#88bbdd" font-family="monospace" font-size="7">ENGINEER</text>
    <rect x="0" y="190" width="100" height="50" rx="3" fill="#12121e" stroke="#3a4a5a" stroke-width="0.5"/>
    <text x="50" y="210" text-anchor="middle" fill="#44ff88" font-family="monospace" font-size="8">ALI REZAEI</text>
    <text x="50" y="225" text-anchor="middle" fill="#667788" font-family="monospace" font-size="7">SR. ENGINEER</text>
  </g>
  <g transform="translate(150, 30)">
    <rect x="0" y="0" width="100" height="180" rx="4" fill="url(#suit)" stroke="#5a6a7a" stroke-width="1"/>
    <circle cx="50" cy="30" r="22" fill="url(#skin)" stroke="#6a7a8a" stroke-width="0.5"/>
    <circle cx="50" cy="30" r="18" fill="url(#skin)"/>
    <rect x="25" y="18" width="10" height="5" rx="2" fill="#3a2a1a"/><rect x="65" y="18" width="10" height="5" rx="2" fill="#3a2a1a"/>
    <line x1="35" y1="30" x2="65" y2="30" stroke="#6a4a3a" stroke-width="1"/>
    <rect x="12" y="30" width="76" height="3" rx="1" fill="#667788"/>
    <rect x="25" y="60" width="50" height="60" rx="3" fill="#1a2a3a" stroke="#3a5a6a" stroke-width="0.5"/>
    <rect x="30" y="65" width="40" height="50" rx="2" fill="#223344"/>
    <rect x="20" y="130" width="60" height="25" rx="3" fill="#1a2a3a" stroke="#3a5a6a" stroke-width="0.5"/>
    <text x="50" y="146" text-anchor="middle" fill="#88bbdd" font-family="monospace" font-size="7">MANAGER</text>
    <rect x="0" y="190" width="100" height="50" rx="3" fill="#12121e" stroke="#3a4a5a" stroke-width="0.5"/>
    <text x="50" y="210" text-anchor="middle" fill="#ffcc00" font-family="monospace" font-size="8">MOHAMMADI</text>
    <text x="50" y="225" text-anchor="middle" fill="#667788" font-family="monospace" font-size="7">PROJECT MGR</text>
  </g>
  <g transform="translate(260, 30)">
    <rect x="0" y="0" width="100" height="180" rx="4" fill="url(#suit)" stroke="#5a6a7a" stroke-width="1"/>
    <circle cx="50" cy="30" r="22" fill="url(#skin)" stroke="#6a7a8a" stroke-width="0.5"/>
    <circle cx="50" cy="30" r="18" fill="url(#skin)"/>
    <rect x="25" y="18" width="10" height="5" rx="2" fill="#3a2a1a"/><rect x="65" y="18" width="10" height="5" rx="2" fill="#3a2a1a"/>
    <line x1="35" y1="30" x2="65" y2="30" stroke="#6a4a3a" stroke-width="1"/>
    <rect x="12" y="30" width="76" height="3" rx="1" fill="#667788"/>
    <rect x="25" y="60" width="50" height="60" rx="3" fill="#1a2a3a" stroke="#3a5a6a" stroke-width="0.5"/>
    <rect x="30" y="65" width="40" height="50" rx="2" fill="#223344"/>
    <rect x="20" y="130" width="60" height="25" rx="3" fill="#1a2a3a" stroke="#3a5a6a" stroke-width="0.5"/>
    <text x="50" y="146" text-anchor="middle" fill="#88bbdd" font-family="monospace" font-size="7">TECHNICIAN</text>
    <rect x="0" y="190" width="100" height="50" rx="3" fill="#12121e" stroke="#3a4a5a" stroke-width="0.5"/>
    <text x="50" y="210" text-anchor="middle" fill="#4488ff" font-family="monospace" font-size="8">KARIMI</text>
    <text x="50" y="225" text-anchor="middle" fill="#667788" font-family="monospace" font-size="7">TECH. LEAD</text>
  </g>
</svg>