<svg xmlns="http://www.w3.org/2000/svg" viewBox="0 0 400 300">
  <defs><linearGradient id="bg3g" x1="0" y1="0" x2="0" y2="1"><stop offset="0" stop-color="#0d1117"/><stop offset="1" stop-color="#161b22"/></linearGradient><linearGradient id="robarm" x1="0" y1="0" x2="1" y2="1"><stop offset="0" stop-color="#4a5a6a"/><stop offset="1" stop-color="#2a3a4a"/></linearGradient><linearGradient id="robjoint" x1="0" y1="0" x2="1" y2="1"><stop offset="0" stop-color="#ffcc00"/><stop offset="1" stop-color="#cc9900"/></linearGradient><filter id="gsh3"><feDropShadow dx="2" dy="2" stdDeviation="3" flood-opacity="0.5"/></filter></defs>
  <rect width="400" height="300" fill="url(#bg3g)"/>
  <rect x="20" y="20" width="360" height="260" rx="8" fill="#1c1c30" stroke="#3a4a6a" stroke-width="2" filter="url(#gsh3)"/>
  <rect x="30" y="30" width="180" height="240" rx="5" fill="#222238" stroke="#4a6a8a" stroke-width="1"/>
  <rect x="40" y="40" width="160" height="220" rx="3" fill="#1a1a2e" stroke="#3a5a7a" stroke-width="1"/>
  <rect x="50" y="50" width="140" height="30" rx="3" fill="#0a0a15" stroke="#3a4a5a" stroke-width="0.5"/>
  <text x="120" y="70" text-anchor="middle" fill="#ffcc00" font-family="monospace" font-size="9">AUTOMATED LINE L1</text>
  <rect x="50" y="88" width="60" height="80" rx="4" fill="url(#robarm)" stroke="#6a7a8a" stroke-width="1"/>
  <circle cx="80" cy="128" r="20" fill="url(#robarm)" stroke="#7a8a9a" stroke-width="1"/>
  <circle cx="80" cy="128" r="8" fill="url(#robjoint)"/>
  <rect x="55" y="168" width="50" height="10" rx="2" fill="url(#robarm)"/>
  <circle cx="80" cy="178" r="5" fill="url(#robjoint)"/>
  <rect x="120" y="88" width="70" height="80" rx="4" fill="url(#robarm)" stroke="#6a7a8a" stroke-width="1"/>
  <circle cx="155" cy="128" r="20" fill="url(#robarm)" stroke="#7a8a9a" stroke-width="1"/>
  <circle cx="155" cy="128" r="8" fill="url(#robjoint)"/>
  <rect x="130" y="168" width="50" height="10" rx="2" fill="url(#robarm)"/>
  <circle cx="155" cy="178" r="5" fill="url(#robjoint)"/>
  <rect x="50" y="188" width="140" height="30" rx="3" fill="#1a1a2e" stroke="#3a5a7a" stroke-width="1"/>
  <text x="120" y="208" text-anchor="middle" fill="#88bbdd" font-family="monospace" font-size="8">CONVEYOR SPEED</text>
  <rect x="50" y="220" width="140" height="6" rx="3" fill="#2a3a3a" stroke="#3a4a4a" stroke-width="0.5"/>
  <rect x="50" y="220" width="98" height="6" rx="3" fill="#44ff88" opacity="0.7"/>
  <text x="160" y="226" fill="#44ff88" font-family="monospace" font-size="7">70%</text>
  <rect x="220" y="30" width="160" height="240" rx="5" fill="#222238" stroke="#4a6a8a" stroke-width="1"/>
  <rect x="228" y="40" width="144" height="50" rx="3" fill="#1a1a2e" stroke="#3a5a7a" stroke-width="1"/>
  <text x="300" y="60" text-anchor="middle" fill="#88bbdd" font-family="monospace" font-size="9">ROBOT ARM</text>
  <text x="300" y="78" text-anchor="middle" fill="#44ff88" font-family="monospace" font-size="11">R-2000iC</text>
  <rect x="228" y="98" width="144" height="70" rx="3" fill="#1a1a2e" stroke="#3a5a7a" stroke-width="1"/>
  <text x="300" y="118" text-anchor="middle" fill="#667788" font-family="monospace" font-size="8">PARAMETERS</text>
  <text x="238" y="138" fill="#88bbdd" font-family="monospace" font-size="7">LOAD: 120 kg</text>
  <text x="238" y="154" fill="#88bbdd" font-family="monospace" font-size="7">REACH: 2.5 m</text>
  <text x="238" y="170" fill="#ffaa44" font-family="monospace" font-size="7">CYCLES: 15,432</text>
  <rect x="228" y="176" width="144" height="50" rx="3" fill="#1a1a2e" stroke="#3a5a7a" stroke-width="1"/>
  <text x="300" y="196" text-anchor="middle" fill="#88bbdd" font-family="monospace" font-size="8">STATUS</text>
  <text x="300" y="215" text-anchor="middle" fill="#44ff88" font-family="monospace" font-size="11">OPERATIONAL</text>
  <rect x="228" y="234" width="144" height="30" rx="3" fill="#12121e" stroke="#3a5a7a" stroke-width="1"/>
  <text x="300" y="254" text-anchor="middle" fill="#ffaa44" font-family="monospace" font-size="8">PRODUCTION: 847 UNITS</text>
</svg>