<svg xmlns="http://www.w3.org/2000/svg" viewBox="0 0 600 400">
  <defs>
    <linearGradient id="bg1" x1="0" y1="0" x2="0" y2="1"><stop offset="0" stop-color="#3a3a4e"/><stop offset="1" stop-color="#2a2a3e"/></linearGradient>
    <linearGradient id="panel" x1="0" y1="0" x2="0" y2="1"><stop offset="0" stop-color="#4a4a5e"/><stop offset="1" stop-color="#3a3a4e"/></linearGradient>
    <linearGradient id="metalg" x1="0" y1="0" x2="1" y2="1"><stop offset="0" stop-color="#8899aa"/><stop offset="1" stop-color="#556677"/></linearGradient>
    <linearGradient id="redbtn" x1="0" y1="0" x2="0" y2="1"><stop offset="0" stop-color="#ff4444"/><stop offset="1" stop-color="#cc0000"/></linearGradient>
    <linearGradient id="greenbtn" x1="0" y1="0" x2="0" y2="1"><stop offset="0" stop-color="#44cc44"/><stop offset="1" stop-color="#009900"/></linearGradient>
    <linearGradient id="screen" x1="0" y1="0" x2="0" y2="1"><stop offset="0" stop-color="#1a3a2a"/><stop offset="1" stop-color="#0a1a12"/></linearGradient>
    <filter id="shadow"><feDropShadow dx="2" dy="2" stdDeviation="3" flood-opacity="0.4"/></filter>
    <filter id="glow"><feGaussianBlur stdDeviation="2" result="blur"/><feMerge><feMergeNode in="blur"/><feMergeNode in="SourceGraphic"/></feMerge></filter>
  </defs>
  <rect width="600" height="400" fill="url(#bg1)"/>
  <rect x="60" y="30" width="480" height="340" rx="8" fill="url(#panel)" stroke="#3a3a4e" stroke-width="2" filter="url(#shadow)"/>
  <rect x="75" y="45" width="140" height="50" rx="4" fill="#1e1e32" stroke="#3a5a7a" stroke-width="1"/>
  <rect x="85" y="55" width="120" height="30" rx="2" fill="url(#screen)"/>
  <text x="145" y="74" text-anchor="middle" fill="#44ff88" font-family="monospace" font-size="10" filter="url(#glow)">ON LINE</text>
  <rect x="230" y="45" width="80" height="50" rx="4" fill="#1e1e32" stroke="#3a5a7a" stroke-width="1"/>
  <circle cx="254" cy="70" r="10" fill="url(#redbtn)"/>
  <circle cx="286" cy="70" r="10" fill="url(#greenbtn)"/>
  <rect x="325" y="45" width="100" height="50" rx="4" fill="#1e1e32" stroke="#3a5a7a" stroke-width="1"/>
  <circle cx="350" cy="65" r="7" fill="#ffaa00"/><circle cx="375" cy="65" r="7" fill="#00ccff"/><circle cx="400" cy="65" r="7" fill="#ff44aa"/>
  <rect x="440" y="45" width="100" height="50" rx="4" fill="#1e1e32" stroke="#3a5a7a" stroke-width="1"/>
  <text x="490" y="74" text-anchor="middle" fill="#ffaa00" font-family="monospace" font-size="11">ALARM</text>
  <line x1="75" y1="110" x2="525" y2="110" stroke="#3a3a4e" stroke-width="1"/>
  <g filter="url(#shadow)">
    <rect x="75" y="120" width="130" height="70" rx="4" fill="#222238" stroke="#4a6a8a" stroke-width="1"/>
    <rect x="82" y="127" width="40" height="24" rx="2" fill="#1a1a2a" stroke="#556677" stroke-width="1"/>
    <text x="102" y="142" text-anchor="middle" fill="url(#metalg)" font-family="sans-serif" font-size="8" font-weight="bold">QF1</text>
    <rect x="82" y="157" width="40" height="24" rx="2" fill="#1a1a2a" stroke="#556677" stroke-width="1"/>
    <text x="102" y="172" text-anchor="middle" fill="url(#metalg)" font-family="sans-serif" font-size="8" font-weight="bold">QF2</text>
    <rect x="130" y="127" width="20" height="54" rx="2" fill="#1a1a2a" stroke="#6a7a8a" stroke-width="1"/>
    <rect x="156" y="127" width="40" height="54" rx="2" fill="#1a1a2a" stroke="#556677" stroke-width="1"/>
    <text x="176" y="157" text-anchor="middle" fill="url(#metalg)" font-family="sans-serif" font-size="8" font-weight="bold">QF3</text>
  </g>
  <g filter="url(#shadow)">
    <rect x="215" y="120" width="140" height="70" rx="4" fill="#222238" stroke="#4a6a8a" stroke-width="1"/>
    <rect x="222" y="127" width="28" height="56" rx="2" fill="#1e1e32" stroke="#6a8aaa" stroke-width="1"/>
    <text x="236" y="158" text-anchor="middle" fill="#88bbdd" font-family="monospace" font-size="7">A</text>
    <rect x="254" y="127" width="28" height="56" rx="2" fill="#1e1e32" stroke="#6a8aaa" stroke-width="1"/>
    <text x="268" y="158" text-anchor="middle" fill="#88bbdd" font-family="monospace" font-size="7">B</text>
    <rect x="286" y="127" width="28" height="56" rx="2" fill="#1e1e32" stroke="#6a8aaa" stroke-width="1"/>
    <text x="300" y="158" text-anchor="middle" fill="#88bbdd" font-family="monospace" font-size="7">C</text>
    <rect x="318" y="127" width="28" height="56" rx="2" fill="#1e1e32" stroke="#6a8aaa" stroke-width="1"/>
    <text x="332" y="158" text-anchor="middle" fill="#88bbdd" font-family="monospace" font-size="7">N</text>
  </g>
  <g filter="url(#shadow)">
    <rect x="365" y="120" width="80" height="70" rx="4" fill="#222238" stroke="#4a6a8a" stroke-width="1"/>
    <text x="405" y="142" text-anchor="middle" fill="url(#metalg)" font-family="sans-serif" font-size="8" font-weight="bold">RELAY</text>
    <rect x="372" y="150" width="66" height="32" rx="3" fill="#1e1e32" stroke="#556677" stroke-width="1"/>
    <line x1="405" y1="150" x2="405" y2="182" stroke="#ff4444" stroke-width="1"/>
    <line x1="372" y1="166" x2="438" y2="166" stroke="#44cc44" stroke-width="1"/>
  </g>
  <g filter="url(#shadow)">
    <rect x="455" y="120" width="70" height="70" rx="4" fill="#222238" stroke="#4a6a8a" stroke-width="1"/>
    <text x="490" y="142" text-anchor="middle" fill="url(#metalg)" font-family="sans-serif" font-size="8" font-weight="bold">PSU</text>
    <rect x="462" y="150" width="56" height="32" rx="2" fill="#1a2a1a" stroke="#44aa44" stroke-width="1"/>
    <text x="490" y="170" text-anchor="middle" fill="#44ff44" font-family="monospace" font-size="9">24V</text>
  </g>
  <line x1="75" y1="205" x2="525" y2="205" stroke="#3a3a4e" stroke-width="1"/>
  <g filter="url(#shadow)">
    <rect x="75" y="215" width="230" height="90" rx="4" fill="#222238" stroke="#4a6a8a" stroke-width="1"/>
    <text x="190" y="237" text-anchor="middle" fill="url(#metalg)" font-family="sans-serif" font-size="9" font-weight="bold">TERMINAL BLOCKS</text>
    <g fill="#1e1e32" stroke="#556677" stroke-width="0.5">
      <rect x="82" y="244" width="14" height="54" rx="1"/><rect x="98" y="244" width="14" height="54" rx="1"/>
      <rect x="114" y="244" width="14" height="54" rx="1"/><rect x="130" y="244" width="14" height="54" rx="1"/>
      <rect x="146" y="244" width="14" height="54" rx="1"/><rect x="162" y="244" width="14" height="54" rx="1"/>
      <rect x="178" y="244" width="14" height="54" rx="1"/><rect x="194" y="244" width="14" height="54" rx="1"/>
      <rect x="210" y="244" width="14" height="54" rx="1"/><rect x="226" y="244" width="14" height="54" rx="1"/>
      <rect x="242" y="244" width="14" height="54" rx="1"/><rect x="258" y="244" width="14" height="54" rx="1"/>
      <rect x="274" y="244" width="14" height="54" rx="1"/><rect x="290" y="244" width="14" height="54" rx="1"/>
    </g>
  </g>
  <g filter="url(#shadow)">
    <rect x="315" y="215" width="210" height="90" rx="4" fill="#222238" stroke="#4a6a8a" stroke-width="1"/>
    <text x="420" y="237" text-anchor="middle" fill="url(#metalg)" font-family="sans-serif" font-size="9" font-weight="bold">CABLE DUCT</text>
    <rect x="322" y="244" width="196" height="54" rx="2" fill="#1a1a2e" stroke="#3a4a5a" stroke-width="1"/>
    <line x1="322" y1="260" x2="518" y2="260" stroke="#3a4a5a" stroke-width="0.5"/>
    <line x1="322" y1="276" x2="518" y2="276" stroke="#3a4a5a" stroke-width="0.5"/>
    <line x1="322" y1="292" x2="518" y2="292" stroke="#3a4a5a" stroke-width="0.5"/>
    <circle cx="340" cy="252" r="3" fill="#ff4444" opacity="0.6"/><circle cx="355" cy="252" r="3" fill="#44cc44" opacity="0.6"/>
    <circle cx="370" cy="252" r="3" fill="#ffaa00" opacity="0.6"/><circle cx="385" cy="252" r="3" fill="#44cc44" opacity="0.6"/>
    <circle cx="400" cy="252" r="3" fill="#ff4444" opacity="0.6"/><circle cx="415" cy="252" r="3" fill="#5588cc" opacity="0.6"/>
    <circle cx="340" cy="268" r="3" fill="#5588cc" opacity="0.6"/><circle cx="355" cy="268" r="3" fill="#ffaa00" opacity="0.6"/>
    <circle cx="370" cy="268" r="3" fill="#ff4444" opacity="0.6"/><circle cx="385" cy="268" r="3" fill="#5588cc" opacity="0.6"/>
    <circle cx="400" cy="268" r="3" fill="#44cc44" opacity="0.6"/><circle cx="415" cy="268" r="3" fill="#ffaa00" opacity="0.6"/>
  </g>
  <line x1="75" y1="320" x2="525" y2="320" stroke="#3a3a4e" stroke-width="1"/>
  <rect x="75" y="330" width="450" height="30" rx="4" fill="#1a1a2a" stroke="#3a5a7a" stroke-width="1"/>
  <text x="150" y="350" text-anchor="middle" fill="#8899aa" font-family="monospace" font-size="9">IEC 61439-1</text>
  <text x="300" y="350" text-anchor="middle" fill="#8899aa" font-family="monospace" font-size="9">SURIN SANAT FARZAN</text>
  <text x="450" y="350" text-anchor="middle" fill="#8899aa" font-family="monospace" font-size="9">IP54</text>
  <rect x="10" y="380" width="580" height="10" rx="3" fill="#0a0a15" stroke="#1a2a3a" stroke-width="0.5"/>
</svg>