<svg xmlns="http://www.w3.org/2000/svg" viewBox="0 0 400 300">
  <defs><linearGradient id="bg2g" x1="0" y1="0" x2="0" y2="1"><stop offset="0" stop-color="#0d1117"/><stop offset="1" stop-color="#161b22"/></linearGradient><linearGradient id="mon" x1="0" y1="0" x2="0" y2="1"><stop offset="0" stop-color="#1a1a2e"/><stop offset="1" stop-color="#12121e"/></linearGradient><linearGradient id="scrn" x1="0" y1="0" x2="0" y2="1"><stop offset="0" stop-color="#0a2a1a"/><stop offset="1" stop-color="#051510"/></linearGradient><filter id="gsh2"><feDropShadow dx="2" dy="2" stdDeviation="3" flood-opacity="0.5"/></filter></defs>
  <rect width="400" height="300" fill="url(#bg2g)"/>
  <rect x="20" y="20" width="360" height="260" rx="8" fill="#1c1c30" stroke="#3a4a6a" stroke-width="2" filter="url(#gsh2)"/>
  <rect x="30" y="30" width="340" height="240" rx="5" fill="#222238" stroke="#4a6a8a" stroke-width="1"/>
  <rect x="35" y="35" width="120" height="100" rx="4" fill="url(#mon)" stroke="#5a7a9a" stroke-width="1"/>
  <rect x="40" y="40" width="110" height="80" rx="2" fill="url(#scrn)" stroke="#2a5a3a" stroke-width="1"/>
  <text x="95" y="60" text-anchor="middle" fill="#00ff88" font-family="monospace" font-size="8">CTRL-1</text>
  <text x="95" y="80" text-anchor="middle" fill="#44ccff" font-family="monospace" font-size="7">TEMP 23.4C</text>
  <rect x="35" y="140" width="120" height="100" rx="4" fill="url(#mon)" stroke="#5a7a9a" stroke-width="1"/>
  <rect x="40" y="145" width="110" height="80" rx="2" fill="url(#scrn)" stroke="#2a5a3a" stroke-width="1"/>
  <text x="95" y="165" text-anchor="middle" fill="#ffaa44" font-family="monospace" font-size="8">CTRL-2</text>
  <rect x="165" y="35" width="120" height="100" rx="4" fill="url(#mon)" stroke="#5a7a9a" stroke-width="1"/>
  <rect x="170" y="40" width="110" height="80" rx="2" fill="url(#scrn)" stroke="#2a5a3a" stroke-width="1"/>
  <text x="225" y="60" text-anchor="middle" fill="#ff6644" font-family="monospace" font-size="8">SCADA</text>
  <line x1="175" y1="75" x2="275" y2="75" stroke="#2a5a3a" stroke-width="0.5"/>
  <circle cx="225" cy="95" r="30" fill="none" stroke="#00ff88" stroke-width="2" opacity="0.5"/>
  <line x1="225" y1="95" x2="240" y2="80" stroke="#44ff88" stroke-width="1.5"/>
  <rect x="165" y="140" width="120" height="100" rx="4" fill="url(#mon)" stroke="#5a7a9a" stroke-width="1"/>
  <rect x="170" y="145" width="110" height="80" rx="2" fill="url(#scrn)" stroke="#2a5a3a" stroke-width="1"/>
  <text x="225" y="165" text-anchor="middle" fill="#4488ff" font-family="monospace" font-size="8">HISTORY</text>
  <rect x="170" y="175" width="110" height="40" rx="2" fill="#0a1a12" stroke="#1a3a2a" stroke-width="0.5"/>
  <text x="225" y="193" text-anchor="middle" fill="#44ff88" font-family="monospace" font-size="10">98.5%</text>
  <text x="225" y="208" text-anchor="middle" fill="#667788" font-family="monospace" font-size="7">UPTIME</text>
  <rect x="295" y="35" width="130" height="205" rx="5" fill="#1e1e32" stroke="#4a6a8a" stroke-width="1"/>
  <rect x="302" y="42" width="116" height="30" rx="3" fill="#0a0a15" stroke="#3a5a7a" stroke-width="0.5"/>
  <text x="360" y="62" text-anchor="middle" fill="#ffcc00" font-family="monospace" font-size="9">ALARMS</text>
  <rect x="302" y="78" width="116" height="20" rx="2" fill="#1a1a1a" stroke="#3a3a3a" stroke-width="0.5"/>
  <text x="310" y="92" fill="#ff4444" font-family="monospace" font-size="7">● HIGH TEMP</text>
  <rect x="302" y="100" width="116" height="20" rx="2" fill="#1a1a1a" stroke="#3a3a3a" stroke-width="0.5"/>
  <text x="310" y="114" fill="#ffaa00" font-family="monospace" font-size="7">● LOW PRESSURE</text>
  <rect x="302" y="122" width="116" height="20" rx="2" fill="#1a1a1a" stroke="#3a3a3a" stroke-width="0.5"/>
  <text x="310" y="136" fill="#ff4444" font-family="monospace" font-size="7">● OVERLOAD</text>
  <rect x="302" y="144" width="116" height="20" rx="2" fill="#1a1a1a" stroke="#3a3a3a" stroke-width="0.5"/>
  <text x="310" y="158" fill="#44ff44" font-family="monospace" font-size="7">● SYSTEM OK</text>
  <rect x="302" y="166" width="116" height="20" rx="2" fill="#1a1a1a" stroke="#3a3a3a" stroke-width="0.5"/>
  <text x="310" y="180" fill="#44ff44" font-family="monospace" font-size="7">● COMMUNICATION</text>
  <rect x="302" y="188" width="116" height="20" rx="2" fill="#1a1a1a" stroke="#3a3a3a" stroke-width="0.5"/>
  <text x="310" y="202" fill="#4488ff" font-family="monospace" font-size="7">● REMOTE OK</text>
  <rect x="35" y="248" width="330" height="18" rx="3" fill="#0a0a15" stroke="#1a2a3a" stroke-width="0.5"/>
  <text x="200" y="261" text-anchor="middle" fill="#667788" font-family="monospace" font-size="8">INDUSTRIAL CONTROL ROOM — SCADA SYSTEM</text>
</svg>