<svg xmlns="http://www.w3.org/2000/svg" viewBox="0 0 400 300">
  <defs><linearGradient id="bg4g" x1="0" y1="0" x2="0" y2="1"><stop offset="0" stop-color="#0d1117"/><stop offset="1" stop-color="#161b22"/></linearGradient><linearGradient id="equip" x1="0" y1="0" x2="0" y2="1"><stop offset="0" stop-color="#2a3a4a"/><stop offset="1" stop-color="#1a2a3a"/></linearGradient><filter id="gsh4"><feDropShadow dx="2" dy="2" stdDeviation="3" flood-opacity="0.5"/></filter></defs>
  <rect width="400" height="300" fill="url(#bg4g)"/>
  <rect x="20" y="20" width="360" height="260" rx="8" fill="#1c1c30" stroke="#3a4a6a" stroke-width="2" filter="url(#gsh4)"/>
  <rect x="30" y="30" width="160" height="240" rx="5" fill="#222238" stroke="#4a6a8a" stroke-width="1"/>
  <rect x="38" y="38" width="144" height="55" rx="4" fill="url(#equip)" stroke="#5a7a9a" stroke-width="1"/>
  <rect x="45" y="45" width="130" height="40" rx="2" fill="#12121e" stroke="#4a5a6a" stroke-width="1"/>
  <text x="110" y="63" text-anchor="middle" fill="#44ff88" font-family="monospace" font-size="12">245.7</text>
  <text x="110" y="78" text-anchor="middle" fill="#667788" font-family="monospace" font-size="7">VAC</text>
  <rect x="38" y="100" width="144" height="55" rx="4" fill="url(#equip)" stroke="#5a7a9a" stroke-width="1"/>
  <rect x="45" y="107" width="130" height="40" rx="2" fill="#12121e" stroke="#4a5a6a" stroke-width="1"/>
  <text x="110" y="125" text-anchor="middle" fill="#ffaa44" font-family="monospace" font-size="12">12.8</text>
  <text x="110" y="140" text-anchor="middle" fill="#667788" font-family="monospace" font-size="7">ADC</text>
  <rect x="38" y="162" width="144" height="55" rx="4" fill="url(#equip)" stroke="#5a7a9a" stroke-width="1"/>
  <rect x="45" y="169" width="130" height="40" rx="2" fill="#12121e" stroke="#4a5a6a" stroke-width="1"/>
  <text x="110" y="187" text-anchor="middle" fill="#4488ff" font-family="monospace" font-size="12">50.0</text>
  <text x="110" y="202" text-anchor="middle" fill="#667788" font-family="monospace" font-size="7">Hz</text>
  <rect x="38" y="224" width="144" height="38" rx="4" fill="url(#equip)" stroke="#5a7a9a" stroke-width="1"/>
  <rect x="45" y="230" width="130" height="26" rx="2" fill="#12121e" stroke="#4a5a6a" stroke-width="1"/>
  <text x="110" y="247" text-anchor="middle" fill="#ff6644" font-family="monospace" font-size="9">POWER METER</text>
  <rect x="205" y="30" width="175" height="240" rx="5" fill="#222238" stroke="#4a6a8a" stroke-width="1"/>
  <rect x="212" y="38" width="161" height="55" rx="4" fill="url(#equip)" stroke="#5a7a9a" stroke-width="1"/>
  <rect x="219" y="45" width="147" height="40" rx="2" fill="#12121e" stroke="#4a5a6a" stroke-width="1"/>
  <text x="293" y="63" text-anchor="middle" fill="#88bbdd" font-family="monospace" font-size="9">OSCILLOSCOPE</text>
  <text x="230" y="78" fill="#00ff88" font-family="monospace" font-size="7">CH1: 5V</text>
  <path d="M240 70 Q260 50 280 65 Q300 80 320 60 Q340 40 350 70" fill="none" stroke="#00ff88" stroke-width="1" opacity="0.7"/>
  <rect x="212" y="100" width="161" height="55" rx="4" fill="url(#equip)" stroke="#5a7a9a" stroke-width="1"/>
  <rect x="219" y="107" width="147" height="40" rx="2" fill="#12121e" stroke="#4a5a6a" stroke-width="1"/>
  <text x="293" y="125" text-anchor="middle" fill="#88bbdd" font-family="monospace" font-size="9">SPECTRUM ANALYZER</text>
  <rect x="226" y="132" width="36" height="8" rx="2" fill="#ff4444" opacity="0.5"/>
  <rect x="265" y="128" width="36" height="12" rx="2" fill="#ffaa00" opacity="0.5"/>
  <rect x="304" y="124" width="36" height="16" rx="2" fill="#44ff44" opacity="0.5"/>
  <rect x="212" y="162" width="161" height="55" rx="4" fill="url(#equip)" stroke="#5a7a9a" stroke-width="1"/>
  <rect x="219" y="169" width="147" height="40" rx="2" fill="#12121e" stroke="#4a5a6a" stroke-width="1"/>
  <text x="293" y="187" text-anchor="middle" fill="#88bbdd" font-family="monospace" font-size="9">CALIBRATOR</text>
  <text x="293" y="203" text-anchor="middle" fill="#ffcc00" font-family="monospace" font-size="11">4-20 mA</text>
  <rect x="212" y="224" width="161" height="38" rx="4" fill="url(#equip)" stroke="#5a7a9a" stroke-width="1"/>
  <rect x="219" y="230" width="147" height="26" rx="2" fill="#12121e" stroke="#4a5a6a" stroke-width="1"/>
  <text x="293" y="247" text-anchor="middle" fill="#44ff88" font-family="monospace" font-size="8">ALL CALIBRATED ✓</text>
</svg>