<svg xmlns="http://www.w3.org/2000/svg" viewBox="0 0 400 260">
  <defs><linearGradient id="bgm" x1="0" y1="0" x2="0" y2="1"><stop offset="0" stop-color="#0d1117"/><stop offset="1" stop-color="#161b22"/></linearGradient><filter id="shm"><feDropShadow dx="2" dy="2" stdDeviation="3" flood-opacity="0.5"/></filter></defs>
  <rect width="400" height="260" fill="url(#bgm)"/>
  <rect x="20" y="15" width="360" height="230" rx="8" fill="#1c1c30" stroke="#3a4a6a" stroke-width="2" filter="url(#shm)"/>
  <rect x="30" y="25" width="340" height="210" rx="5" fill="#222238" stroke="#4a6a8a" stroke-width="1"/>
  <rect x="38" y="33" width="324" height="30" rx="3" fill="#0a0a15" stroke="#3a4a5a" stroke-width="0.5"/>
  <text x="200" y="53" text-anchor="middle" fill="#ffcc00" font-family="monospace" font-size="11">MCC PANEL</text>
  <rect x="38" y="72" width="100" height="150" rx="4" fill="#1a1a2e" stroke="#4a6a8a" stroke-width="1"/>
  <rect x="45" y="79" width="86" height="35" rx="3" fill="#2a3a4a" stroke="#5a7a9a" stroke-width="1"/>
  <text x="88" y="95" text-anchor="middle" fill="#44ff88" font-family="monospace" font-size="9">MCC-01</text>
  <text x="88" y="108" text-anchor="middle" fill="#667788" font-family="monospace" font-size="7">45 kW</text>
  <rect x="45" y="120" width="86" height="35" rx="3" fill="#2a3a4a" stroke="#5a7a9a" stroke-width="1"/>
  <text x="88" y="136" text-anchor="middle" fill="#44ff88" font-family="monospace" font-size="9">MCC-02</text>
  <text x="88" y="149" text-anchor="middle" fill="#667788" font-family="monospace" font-size="7">37 kW</text>
  <rect x="45" y="161" width="86" height="35" rx="3" fill="#2a3a4a" stroke="#5a7a9a" stroke-width="1"/>
  <text x="88" y="177" text-anchor="middle" fill="#ffaa44" font-family="monospace" font-size="9">MCC-03</text>
  <text x="88" y="190" text-anchor="middle" fill="#667788" font-family="monospace" font-size="7">22 kW</text>
  <rect x="150" y="72" width="100" height="150" rx="4" fill="#1a1a2e" stroke="#4a6a8a" stroke-width="1"/>
  <rect x="157" y="79" width="86" height="35" rx="3" fill="#2a3a4a" stroke="#5a7a9a" stroke-width="1"/>
  <text x="200" y="95" text-anchor="middle" fill="#44ff88" font-family="monospace" font-size="9">MCC-04</text>
  <text x="200" y="108" text-anchor="middle" fill="#667788" font-family="monospace" font-size="7">90 kW</text>
  <rect x="157" y="120" width="86" height="35" rx="3" fill="#2a3a4a" stroke="#5a7a9a" stroke-width="1"/>
  <text x="200" y="136" text-anchor="middle" fill="#44ff88" font-family="monospace" font-size="9">MCC-05</text>
  <text x="200" y="149" text-anchor="middle" fill="#667788" font-family="monospace" font-size="7">75 kW</text>
  <rect x="157" y="161" width="86" height="35" rx="3" fill="#2a3a4a" stroke="#5a7a9a" stroke-width="1"/>
  <text x="200" y="177" text-anchor="middle" fill="#ffaa44" font-family="monospace" font-size="9">MCC-06</text>
  <text x="200" y="190" text-anchor="middle" fill="#667788" font-family="monospace" font-size="7">55 kW</text>
  <rect x="262" y="72" width="100" height="150" rx="4" fill="#1a1a2e" stroke="#4a6a8a" stroke-width="1"/>
  <rect x="269" y="79" width="86" height="50" rx="3" fill="#12121e" stroke="#3a5a7a" stroke-width="1"/>
  <text x="312" y="100" text-anchor="middle" fill="#88bbdd" font-family="monospace" font-size="8">MAIN</text>
  <text x="312" y="118" text-anchor="middle" fill="#ffcc00" font-family="monospace" font-size="7">630A</text>
  <rect x="269" y="137" width="86" height="50" rx="3" fill="#12121e" stroke="#3a5a7a" stroke-width="1"/>
  <text x="312" y="158" text-anchor="middle" fill="#88bbdd" font-family="monospace" font-size="8">BC</text>
  <text x="312" y="176" text-anchor="middle" fill="#ffcc00" font-family="monospace" font-size="7">630A</text>
  <rect x="269" y="195" width="86" height="22" rx="3" fill="#12121e" stroke="#3a5a7a" stroke-width="1"/>
  <text x="312" y="211" text-anchor="middle" fill="#44ff88" font-family="monospace" font-size="8">IEC 61439</text>
</svg>