<svg xmlns="http://www.w3.org/2000/svg" viewBox="0 0 400 260">
  <defs><linearGradient id="bgs" x1="0" y1="0" x2="0" y2="1"><stop offset="0" stop-color="#0d1117"/><stop offset="1" stop-color="#161b22"/></linearGradient><filter id="shs"><feDropShadow dx="2" dy="2" stdDeviation="3" flood-opacity="0.5"/></filter></defs>
  <rect width="400" height="260" fill="url(#bgs)"/>
  <rect x="20" y="15" width="360" height="230" rx="8" fill="#1c1c30" stroke="#3a4a6a" stroke-width="2" filter="url(#shs)"/>
  <rect x="30" y="25" width="340" height="210" rx="5" fill="#222238" stroke="#4a6a8a" stroke-width="1"/>
  <rect x="38" y="33" width="324" height="30" rx="3" fill="#0a0a15" stroke="#3a4a5a" stroke-width="0.5"/>
  <text x="200" y="53" text-anchor="middle" fill="#ffcc00" font-family="monospace" font-size="11">STANDARDS & CERTIFICATIONS</text>
  <rect x="38" y="72" width="100" height="70" rx="5" fill="#1a1a2e" stroke="#4a6a8a" stroke-width="1"/>
  <text x="88" y="95" text-anchor="middle" fill="#ffaa44" font-family="monospace" font-size="18">IEC</text>
  <text x="88" y="120" text-anchor="middle" fill="#667788" font-family="monospace" font-size="7">INTERNATIONAL</text>
  <text x="88" y="133" text-anchor="middle" fill="#667788" font-family="monospace" font-size="7">ELECTROTECHNICAL</text>
  <rect x="150" y="72" width="100" height="70" rx="5" fill="#1a1a2e" stroke="#4a6a8a" stroke-width="1"/>
  <text x="200" y="95" text-anchor="middle" fill="#4488ff" font-family="monospace" font-size="18">NEMA</text>
  <text x="200" y="120" text-anchor="middle" fill="#667788" font-family="monospace" font-size="7">NATIONAL</text>
  <text x="200" y="133" text-anchor="middle" fill="#667788" font-family="monospace" font-size="7">ELECTRICAL MFG</text>
  <rect x="262" y="72" width="100" height="70" rx="5" fill="#1a1a2e" stroke="#4a6a8a" stroke-width="1"/>
  <text x="312" y="95" text-anchor="middle" fill="#44ff88" font-family="monospace" font-size="18">ISO</text>
  <text x="312" y="120" text-anchor="middle" fill="#667788" font-family="monospace" font-size="7">9001:2015</text>
  <text x="312" y="133" text-anchor="middle" fill="#667788" font-family="monospace" font-size="7">QUALITY</text>
  <rect x="38" y="152" width="155" height="75" rx="4" fill="#1a1a2e" stroke="#3a5a7a" stroke-width="1"/>
  <rect x="45" y="158" width="141" height="18" rx="3" fill="#0a0a15" stroke="#3a4a5a" stroke-width="0.5"/>
  <text x="115" y="171" text-anchor="middle" fill="#ffcc00" font-family="monospace" font-size="8">APPLICABLE STANDARDS</text>
  <text x="48" y="190" fill="#667788" font-family="monospace" font-size="7">IEC 61439 - Switchboards</text>
  <text x="48" y="205" fill="#667788" font-family="monospace" font-size="7">IEC 60529 - IP Ratings</text>
  <text x="48" y="220" fill="#667788" font-family="monospace" font-size="7">IEC 60947 - LV Switchgear</text>
  <rect x="205" y="152" width="155" height="75" rx="4" fill="#1a1a2e" stroke="#3a5a7a" stroke-width="1"/>
  <rect x="212" y="158" width="141" height="18" rx="3" fill="#0a0a15" stroke="#3a4a5a" stroke-width="0.5"/>
  <text x="282" y="171" text-anchor="middle" fill="#ffcc00" font-family="monospace" font-size="8">CERTIFICATIONS</text>
  <circle cx="225" cy="190" r="4" fill="#44ff88"/><text x="235" y="194" fill="#667788" font-family="monospace" font-size="7">CE MARKING</text>
  <circle cx="225" cy="207" r="4" fill="#44ff88"/><text x="235" y="211" fill="#667788" font-family="monospace" font-size="7">ISO 14001</text>
  <circle cx="225" cy="222" r="4" fill="#44ff88"/><text x="235" y="226" fill="#667788" font-family="monospace" font-size="7">OHSAS 18001</text>
</svg>