<svg xmlns="http://www.w3.org/2000/svg" viewBox="0 0 400 260">
  <defs><linearGradient id="bgi" x1="0" y1="0" x2="0" y2="1"><stop offset="0" stop-color="#0d1117"/><stop offset="1" stop-color="#161b22"/></linearGradient><filter id="shi"><feDropShadow dx="2" dy="2" stdDeviation="3" flood-opacity="0.5"/></filter></defs>
  <rect width="400" height="260" fill="url(#bgi)"/>
  <rect x="20" y="15" width="360" height="230" rx="8" fill="#1c1c30" stroke="#3a4a6a" stroke-width="2" filter="url(#shi)"/>
  <rect x="30" y="25" width="340" height="210" rx="5" fill="#222238" stroke="#4a6a8a" stroke-width="1"/>
  <rect x="38" y="33" width="324" height="30" rx="3" fill="#0a0a15" stroke="#3a4a5a" stroke-width="0.5"/>
  <text x="200" y="53" text-anchor="middle" fill="#ffcc00" font-family="monospace" font-size="11">IIoT ARCHITECTURE</text>
  <rect x="38" y="72" width="70" height="60" rx="4" fill="#1a1a2e" stroke="#4488ff" stroke-width="1"/>
  <text x="73" y="95" text-anchor="middle" fill="#4488ff" font-family="monospace" font-size="8">SENSORS</text>
  <circle cx="73" cy="110" r="6" fill="#4488ff" opacity="0.3"/>
  <circle cx="73" cy="110" r="3" fill="#4488ff"/>
  <rect x="120" y="72" width="70" height="60" rx="4" fill="#1a1a2e" stroke="#44ff88" stroke-width="1"/>
  <text x="155" y="95" text-anchor="middle" fill="#44ff88" font-family="monospace" font-size="8">GATEWAY</text>
  <path d="M140 110 L155 100 L170 110" fill="none" stroke="#44ff88" stroke-width="1.5"/>
  <rect x="202" y="72" width="70" height="60" rx="4" fill="#1a1a2e" stroke="#ffaa44" stroke-width="1"/>
  <text x="237" y="95" text-anchor="middle" fill="#ffaa44" font-family="monospace" font-size="8">CLOUD</text>
  <path d="M225 105 Q237 95 250 105 Q255 115 245 118 Q235 120 225 115 Z" fill="none" stroke="#ffaa44" stroke-width="1.5"/>
  <rect x="284" y="72" width="70" height="60" rx="4" fill="#1a1a2e" stroke="#ff6644" stroke-width="1"/>
  <text x="319" y="95" text-anchor="middle" fill="#ff6644" font-family="monospace" font-size="8">DASHBOARD</text>
  <rect x="294" y="102" width="50" height="20" rx="2" fill="#12121e" stroke="#3a5a5a" stroke-width="0.5"/>
  <line x1="108" y1="102" x2="120" y2="102" stroke="#4488ff" stroke-width="1"/><polygon points="118,97 120,102 118,107" fill="#4488ff"/>
  <line x1="190" y1="102" x2="202" y2="102" stroke="#44ff88" stroke-width="1"/><polygon points="200,97 202,102 200,107" fill="#44ff88"/>
  <line x1="272" y1="102" x2="284" y2="102" stroke="#ffaa44" stroke-width="1"/><polygon points="282,97 284,102 282,107" fill="#ffaa44"/>
  <rect x="38" y="145" width="324" height="80" rx="4" fill="#12121e" stroke="#3a5a7a" stroke-width="1"/>
  <text x="200" y="165" text-anchor="middle" fill="#88bbdd" font-family="monospace" font-size="9">INDUSTRIAL INTERNET OF THINGS</text>
  <text x="60" y="185" fill="#667788" font-family="monospace" font-size="7">REAL-TIME MONITORING</text>
  <text x="60" y="200" fill="#667788" font-family="monospace" font-size="7">PREDICTIVE MAINTENANCE</text>
  <text x="250" y="185" fill="#667788" font-family="monospace" font-size="7">ENERGY OPTIMIZATION</text>
  <text x="250" y="200" fill="#667788" font-family="monospace" font-size="7">OEE ANALYSIS</text>
  <circle cx="48" cy="212" r="3" fill="#44ff88"/><circle cx="140" cy="212" r="3" fill="#44ff88"/>
  <circle cx="238" cy="212" r="3" fill="#44ff88"/><circle cx="348" cy="212" r="3" fill="#44ff88"/>
</svg>