<svg xmlns="http://www.w3.org/2000/svg" viewBox="0 0 400 260">
  <defs><linearGradient id="bgv" x1="0" y1="0" x2="0" y2="1"><stop offset="0" stop-color="#0d1117"/><stop offset="1" stop-color="#161b22"/></linearGradient><filter id="shv"><feDropShadow dx="2" dy="2" stdDeviation="3" flood-opacity="0.5"/></filter></defs>
  <rect width="400" height="260" fill="url(#bgv)"/>
  <rect x="20" y="15" width="360" height="230" rx="8" fill="#1c1c30" stroke="#3a4a6a" stroke-width="2" filter="url(#shv)"/>
  <rect x="30" y="25" width="340" height="210" rx="5" fill="#222238" stroke="#4a6a8a" stroke-width="1"/>
  <rect x="38" y="33" width="324" height="30" rx="3" fill="#0a0a15" stroke="#3a4a5a" stroke-width="0.5"/>
  <text x="200" y="53" text-anchor="middle" fill="#ffcc00" font-family="monospace" font-size="11">VARIABLE FREQUENCY DRIVE</text>
  <rect x="38" y="72" width="160" height="150" rx="5" fill="#1a1a2e" stroke="#4a6a8a" stroke-width="1"/>
  <rect x="45" y="79" width="146" height="30" rx="3" fill="#0a0a15" stroke="#3a4a5a" stroke-width="0.5"/>
  <text x="118" y="99" text-anchor="middle" fill="#44ff88" font-family="monospace" font-size="10">VFD-4000</text>
  <rect x="45" y="115" width="146" height="60" rx="3" fill="#12121e" stroke="#3a5a7a" stroke-width="1"/>
  <text x="118" y="135" text-anchor="middle" fill="#ffaa44" font-family="monospace" font-size="14">45.0</text>
  <text x="118" y="155" text-anchor="middle" fill="#667788" font-family="monospace" font-size="8">Hz · 37 kW</text>
  <rect x="45" y="182" width="65" height="30" rx="3" fill="#12121e" stroke="#3a5a7a" stroke-width="0.5"/>
  <text x="77" y="202" text-anchor="middle" fill="#44ff88" font-family="monospace" font-size="9">RUN</text>
  <rect x="118" y="182" width="65" height="30" rx="3" fill="#12121e" stroke="#3a5a7a" stroke-width="0.5"/>
  <text x="150" y="202" text-anchor="middle" fill="#ff4444" font-family="monospace" font-size="9">STOP</text>
  <rect x="210" y="72" width="150" height="150" rx="5" fill="#1a1a2e" stroke="#4a6a8a" stroke-width="1"/>
  <rect x="217" y="79" width="136" height="30" rx="3" fill="#0a0a15" stroke="#3a4a5a" stroke-width="0.5"/>
  <text x="285" y="99" text-anchor="middle" fill="#88bbdd" font-family="monospace" font-size="10">PARAMETERS</text>
  <rect x="217" y="115" width="136" height="40" rx="3" fill="#12121e" stroke="#3a5a7a" stroke-width="0.5"/>
  <text x="227" y="135" fill="#667788" font-family="monospace" font-size="7">ACCEL: 5.0s</text>
  <text x="227" y="150" fill="#667788" font-family="monospace" font-size="7">DECEL: 5.0s</text>
  <rect x="217" y="160" width="136" height="40" rx="3" fill="#12121e" stroke="#3a5a7a" stroke-width="0.5"/>
  <text x="227" y="180" fill="#667788" font-family="monospace" font-size="7">V/Hz: 380V/50Hz</text>
  <text x="227" y="195" fill="#ffaa44" font-family="monospace" font-size="7">TORQUE: 120%</text>
  <rect x="217" y="205" width="136" height="14" rx="3" fill="#12121e" stroke="#3a5a7a" stroke-width="0.5"/>
  <text x="285" y="216" text-anchor="middle" fill="#44ff88" font-family="monospace" font-size="7">SENSORLESS VECTOR</text>
</svg>